<?xml version="1.0" encoding="utf-8"?>
<!-- Generator: Adobe Illustrator 15.0.0, SVG Export Plug-In . SVG Version: 6.00 Build 0)  -->
<!DOCTYPE svg PUBLIC "-//W3C//DTD SVG 1.1//EN" "http://www.w3.org/Graphics/SVG/1.1/DTD/svg11.dtd">
<svg version="1.1" id="Capa_1" xmlns="http://www.w3.org/2000/svg" xmlns:xlink="http://www.w3.org/1999/xlink" x="0px" y="0px"
	 width="228.68px" height="15.948px" viewBox="0 0 228.68 15.948" enable-background="new 0 0 228.68 15.948" xml:space="preserve">
<path fill="#1A1A1A" d="M0,12.126V3.315h3.451c2.917,0,4.373,1.388,4.373,4.165c0,3.097-1.456,4.646-4.373,4.646H0z M3.451,10.708
	c1.828,0,2.741-1.074,2.741-3.228c0-1.829-0.914-2.748-2.741-2.748H1.633v5.976H3.451z"/>
<path fill="#1A1A1A" d="M10.688,4.61H9.055V3.315h1.633V4.61z M10.688,12.126H9.055V5.658h1.633V12.126z"/>
<path fill="#1A1A1A" d="M12.228,11.817v-1.354c0.718,0.288,1.549,0.43,2.49,0.43c0.701,0,1.051-0.226,1.051-0.676
	c0-0.433-0.236-0.649-0.707-0.649h-1.171c-1.312,0-1.968-0.645-1.968-1.938c0-1.356,0.957-2.034,2.875-2.034
	c0.812,0,1.58,0.124,2.298,0.371V7.32c-0.718-0.287-1.5-0.432-2.343-0.432c-0.882,0-1.324,0.226-1.324,0.678
	c0,0.433,0.255,0.647,0.771,0.647h1.046c1.439,0,2.156,0.647,2.156,1.939c0,1.355-0.914,2.032-2.747,2.032
	C13.755,12.186,12.946,12.063,12.228,11.817"/>
<path fill="#1A1A1A" d="M21.27,5.66c1.964,0,2.945,1,2.945,3.004c0,0.267-0.02,0.532-0.055,0.801h-4.293
	c0,0.911,0.67,1.367,2.01,1.367c0.652,0,1.305-0.062,1.958-0.186v1.294c-0.571,0.124-1.266,0.187-2.083,0.187
	c-2.345,0-3.519-1.104-3.519-3.31C18.232,6.71,19.247,5.66,21.27,5.66 M19.867,8.329h2.759V8.282c0-0.896-0.454-1.345-1.356-1.345
	C20.409,6.937,19.941,7.403,19.867,8.329"/>
<path fill="#1A1A1A" d="M25.442,12.126V5.658h1.262l0.203,0.949c0.619-0.633,1.327-0.949,2.118-0.949
	c1.532,0,2.299,0.796,2.299,2.389v4.08h-1.633v-4.08c0-0.714-0.354-1.07-1.064-1.07c-0.531,0-1.046,0.209-1.554,0.633v4.516H25.442z
	 M26.968,3.601c0.247-0.189,0.514-0.285,0.801-0.285c0.215,0,0.439,0.054,0.68,0.164c0.237,0.104,0.469,0.157,0.701,0.157
	c0.308,0,0.609-0.094,0.899-0.283v1.293c-0.246,0.189-0.513,0.284-0.8,0.284c-0.213,0-0.439-0.054-0.677-0.161
	c-0.238-0.107-0.472-0.16-0.701-0.16c-0.311,0-0.609,0.094-0.902,0.283V3.601z"/>
<path fill="#1A1A1A" d="M32.555,8.893c0-2.17,1.07-3.255,3.205-3.255c2.136,0,3.204,1.085,3.204,3.255
	c0,2.163-1.068,3.245-3.204,3.245C33.632,12.138,32.563,11.056,32.555,8.893 M35.759,10.893c1.046,0,1.57-0.676,1.57-2.024
	c0-1.319-0.523-1.979-1.57-1.979c-1.048,0-1.571,0.66-1.571,1.979C34.188,10.217,34.711,10.893,35.759,10.893"/>
<path fill="#1A1A1A" d="M42.196,5.658h1.731l1.633,4.655l1.597-4.655h1.698l-2.685,6.66c-0.478,1.172-1.24,2.006-2.287,2.506
	l-0.788-1.114c0.725-0.315,1.247-0.832,1.577-1.546L42.196,5.658z"/>
<path fill="#1A1A1A" d="M52.55,12.126V3.315h3.452c2.915,0,4.372,1.388,4.372,4.165c0,3.097-1.457,4.646-4.372,4.646H52.55z
	 M56.002,10.708c1.826,0,2.741-1.074,2.741-3.228c0-1.829-0.915-2.748-2.741-2.748h-1.82v5.976H56.002z"/>
<path fill="#1A1A1A" d="M64.333,5.66c1.965,0,2.944,1,2.944,3.004c0,0.267-0.016,0.532-0.053,0.801h-4.294
	c0,0.911,0.67,1.367,2.007,1.367c0.652,0,1.307-0.062,1.959-0.186v1.294c-0.567,0.124-1.265,0.187-2.081,0.187
	c-2.346,0-3.518-1.104-3.518-3.31C61.298,6.71,62.311,5.66,64.333,5.66 M62.931,8.329h2.759V8.282c0-0.896-0.454-1.345-1.356-1.345
	C63.472,6.937,63.002,7.403,62.931,8.329"/>
<path fill="#1A1A1A" d="M68.504,11.817v-1.354c0.72,0.288,1.547,0.43,2.49,0.43c0.701,0,1.054-0.226,1.054-0.676
	c0-0.433-0.238-0.649-0.71-0.649h-1.169c-1.314,0-1.973-0.645-1.973-1.938c0-1.356,0.959-2.034,2.878-2.034
	c0.812,0,1.579,0.124,2.296,0.371V7.32c-0.717-0.287-1.497-0.432-2.34-0.432c-0.883,0-1.324,0.226-1.324,0.678
	c0,0.433,0.257,0.647,0.77,0.647h1.049c1.437,0,2.156,0.647,2.156,1.939c0,1.355-0.916,2.032-2.746,2.032
	C70.034,12.186,69.224,12.063,68.504,11.817"/>
<path fill="#1A1A1A" d="M74.512,10.111c0-1.286,0.936-1.928,2.809-1.928c0.44,0,0.879,0.041,1.319,0.123V7.819
	c0-0.58-0.418-0.868-1.251-0.868c-0.709,0-1.491,0.102-2.354,0.309V5.966c0.862-0.207,1.645-0.309,2.354-0.309
	c1.921,0,2.882,0.71,2.882,2.131v4.337h-0.947l-0.582-0.58c-0.562,0.386-1.181,0.58-1.857,0.58
	C75.303,12.126,74.512,11.452,74.512,10.111 M77.32,9.292c-0.783,0-1.178,0.268-1.178,0.8c0,0.575,0.331,0.862,0.987,0.862
	c0.539,0,1.042-0.167,1.51-0.503V9.414C78.229,9.334,77.788,9.292,77.32,9.292"/>
<path fill="#1A1A1A" d="M81.81,12.126V5.658h1.264l0.203,0.825c0.567-0.55,1.165-0.825,1.799-0.825v1.319
	c-0.607,0-1.152,0.252-1.631,0.756v4.393H81.81z"/>
<path fill="#1A1A1A" d="M86,12.126V5.658h1.262l0.203,0.825c0.569-0.55,1.165-0.825,1.798-0.825v1.319
	c-0.607,0-1.152,0.252-1.632,0.756v4.393H86z"/>
<path fill="#1A1A1A" d="M89.882,8.893c0-2.17,1.065-3.255,3.2-3.255s3.205,1.085,3.205,3.255c0,2.163-1.07,3.245-3.205,3.245
	C90.954,12.138,89.888,11.056,89.882,8.893 M93.082,10.893c1.048,0,1.572-0.676,1.572-2.024c0-1.319-0.524-1.979-1.572-1.979
	s-1.57,0.66-1.57,1.979C91.512,10.217,92.034,10.893,93.082,10.893"/>
<rect x="97.521" y="3.315" fill="#1A1A1A" width="1.63" height="8.811"/>
<rect x="100.692" y="3.315" fill="#1A1A1A" width="1.631" height="8.811"/>
<path fill="#1A1A1A" d="M103.556,8.893c0-2.17,1.067-3.255,3.202-3.255c2.137,0,3.203,1.085,3.203,3.255
	c0,2.163-1.066,3.245-3.203,3.245C104.631,12.138,103.565,11.056,103.556,8.893 M106.758,10.893c1.049,0,1.571-0.676,1.571-2.024
	c0-1.319-0.522-1.979-1.571-1.979c-1.047,0-1.569,0.66-1.569,1.979C105.188,10.217,105.711,10.893,106.758,10.893"/>
<polygon fill="#1A1A1A" points="113.412,3.315 115.067,3.315 116.012,9.643 118.302,3.315 119.873,3.315 122.016,9.397 
	123.014,3.315 124.622,3.315 122.964,12.126 121.411,12.126 118.991,5.214 116.393,12.126 114.859,12.126 "/>
<path fill="#1A1A1A" d="M128.338,5.66c1.961,0,2.942,1,2.942,3.004c0,0.267-0.018,0.532-0.054,0.801h-4.296
	c0,0.911,0.671,1.367,2.01,1.367c0.653,0,1.304-0.062,1.959-0.186v1.294c-0.57,0.124-1.265,0.187-2.083,0.187
	c-2.343,0-3.518-1.104-3.518-3.31C125.299,6.71,126.312,5.66,128.338,5.66 M126.931,8.329h2.762V8.282
	c0-0.896-0.452-1.345-1.354-1.345C127.473,6.937,127.007,7.403,126.931,8.329"/>
<path fill="#1A1A1A" d="M132.506,3.315h1.634V6.15c0.487-0.33,1.032-0.492,1.633-0.492c1.839,0,2.759,1.034,2.759,3.104
	c0,2.242-1.053,3.364-3.161,3.364c-0.884,0-1.839-0.09-2.864-0.267V3.315z M134.14,10.629c0.373,0.119,0.806,0.177,1.3,0.177
	c0.985,0,1.478-0.695,1.478-2.088c0-1.137-0.425-1.706-1.273-1.706c-0.552,0-1.055,0.11-1.504,0.333V10.629z"/>
<path fill="#1A1A1A" d="M142.536,3.315h1.63V6.15c0.49-0.33,1.034-0.492,1.632-0.492c1.84,0,2.764,1.034,2.764,3.104
	c0,2.242-1.056,3.364-3.163,3.364c-0.886,0-1.841-0.09-2.862-0.267V3.315z M144.166,10.629c0.374,0.119,0.808,0.177,1.301,0.177
	c0.985,0,1.479-0.695,1.479-2.088c0-1.137-0.425-1.706-1.274-1.706c-0.551,0-1.053,0.11-1.505,0.333V10.629z"/>
<path fill="#1A1A1A" d="M149.021,5.658h1.731l1.632,4.655l1.595-4.655h1.7l-2.683,6.66c-0.479,1.172-1.238,2.006-2.286,2.506
	l-0.791-1.114c0.725-0.315,1.252-0.832,1.577-1.546L149.021,5.658z"/>
<path fill="#212120" d="M179.486,4.627v9.161c0,0.257-0.211,0.467-0.465,0.467h-1.561c-0.257,0-0.467-0.21-0.467-0.467V4.627
	c0-0.258,0.21-0.469,0.467-0.469h1.561C179.275,4.159,179.486,4.369,179.486,4.627 M191.353,0.463v13.325
	c0,0.257-0.207,0.467-0.464,0.467h-1.396c-0.256,0-0.49-0.208-0.519-0.463l-0.056-0.462c-0.022-0.194-0.175-0.289-0.31-0.245
	c-0.08,0.032-0.159,0.132-0.252,0.224c-0.361,0.347-1.363,1.171-2.735,1.171c-2.96,0-5.18-1.958-5.18-5.264
	c0-3.464,2.182-5.258,5.119-5.258c1.059,0,2.711,0.569,3.304,1.609V0.463c0-0.253,0.212-0.463,0.462-0.463h1.562
	C191.146,0,191.353,0.21,191.353,0.463 M188.701,9.216c0-1.753-1.348-2.934-2.913-2.934c-1.594,0-2.856,1.121-2.856,2.934
	c0,1.756,1.263,2.958,2.856,2.958C187.354,12.174,188.701,11.033,188.701,9.216"/>
<path fill="#595958" d="M214.733,14.451c-3.501,0-5.101-2.715-5.101-5.239c0-2.587,1.578-5.195,5.101-5.195
	c1.478,0,2.74,0.479,3.65,1.394c0.941,0.952,1.462,2.313,1.451,3.83C219.823,11.753,218.222,14.451,214.733,14.451 M214.733,5.213
	c-1.13,0-2.081,0.359-2.759,1.043c-0.718,0.724-1.108,1.776-1.101,2.969c0.013,1.943,1.225,4.027,3.859,4.027
	c2.666,0,3.876-2.084,3.876-4.025C218.609,7.227,217.414,5.213,214.733,5.213 M224.737,14.42c-1.896,0-3.931-1.259-3.931-4.026
	V4.868c0-0.388,0.278-0.702,0.621-0.702c0.342,0,0.619,0.314,0.619,0.702v5.525c0,1.951,1.396,2.839,2.69,2.839
	c1.304,0,2.702-0.888,2.702-2.839V4.868c0-0.388,0.275-0.702,0.619-0.702c0.341,0,0.621,0.314,0.621,0.702v5.525
	C228.68,13.039,226.694,14.42,224.737,14.42 M205.1,14.288c-0.347,0-0.624-0.317-0.624-0.702v-2.954
	c0-0.196-0.095-0.516-0.203-0.677l-3.262-5.006c-0.287-0.438-0.287-0.438-0.287-0.522c0-0.261,0.149-0.261,0.692-0.261
	c0.327,0,0.705,0.212,0.888,0.491l2.771,4.305c0.011,0.019,0.022,0.031,0.029,0.033c-0.002-0.002,0.011-0.014,0.024-0.033
	l2.78-4.305c0.184-0.279,0.563-0.491,0.89-0.491c0.544,0,0.687,0,0.687,0.261c0,0.084,0,0.084-0.282,0.522l-3.277,5.006
	c-0.104,0.161-0.199,0.48-0.199,0.677v2.954C205.727,13.971,205.446,14.288,205.1,14.288 M199.021,14.288
	c-0.345,0-0.629-0.317-0.629-0.702v-1.279c0-0.104-0.086-0.187-0.191-0.187h-4.993c-0.372,0-0.711-0.289-0.775-0.655
	c-0.053-0.329,0.063-0.753,0.27-1.003l4.984-5.866c0.207-0.245,0.604-0.43,0.928-0.43h0.327c0.387,0,0.706,0.314,0.706,0.702v5.809
	c0,0.104,0.084,0.188,0.187,0.188h0.316c0.39,0,0.706,0.281,0.706,0.626c0,0.344-0.316,0.628-0.706,0.628h-0.316
	c-0.103,0-0.187,0.083-0.187,0.187v1.279C199.646,13.971,199.364,14.288,199.021,14.288 M198.2,10.866
	c0.105,0,0.191-0.085,0.191-0.188V5.665l-4.436,5.201H198.2z"/>
<path fill="#212120" d="M168.288,12.286c-1.688,0-3.059-1.37-3.059-3.059c0-1.687,1.371-3.058,3.059-3.058
	c1.69,0,3.061,1.371,3.061,3.058C171.349,10.916,169.977,12.286,168.288,12.286"/>
<path fill="#99B53D" d="M161.671,9.605l-0.879,0.876c-0.203,0.211-0.547,0.211-0.755,0l-0.875-0.876
	c-0.211-0.208-0.211-0.548,0-0.755l3.736-3.738c0.205-0.206,0.548-0.544,0.757-0.75c0,0,0.041-0.041,0.152-0.143
	c1.189-1.065,2.763-1.711,4.48-1.711h0.16c0.164,0.009,0.137,0.186-0.07,0.395l-3.098,3.094c-0.209,0.206-0.548,0.547-0.754,0.754
	l-2.102,2.1L161.671,9.605z M171.363,3.25c-0.591-0.281-1.438-0.601-1.862-0.175l-0.262,0.258c-0.204,0.208-0.545,0.545-0.75,0.755
	l-0.388,0.389c-0.212,0.209-0.103,0.356,0.152,0.375c1.006-0.025,1.843,0.328,2.251,0.563c1.31,0.764,2.195,2.189,2.195,3.813
	c0,2.434-1.977,4.411-4.412,4.411c-1.079,0-2.119-0.394-2.924-1.109c-0.088-0.079-0.328-0.321-0.328-0.321
	c-0.211-0.206-0.552-0.544-0.759-0.75l-0.26-0.262l-0.005-0.002l-0.938-0.938c-0.207-0.208-0.546-0.208-0.754-0.002l-0.879,0.879
	c-0.207,0.206-0.207,0.546,0,0.754l0.82,0.821l0.386,0.385c0.207,0.206,0.549,0.545,0.757,0.754c0,0,0.298,0.293,0.413,0.4
	c1.19,1.058,2.755,1.701,4.47,1.701c3.714,0,6.72-3.008,6.72-6.721C175.008,6.625,173.529,4.367,171.363,3.25"/>
</svg>
