<?xml version="1.0" encoding="utf-8"?>
<!-- Generator: Adobe Illustrator 19.0.0, SVG Export Plug-In . SVG Version: 6.00 Build 0)  -->
<svg version="1.1" id="Layer_1" xmlns="http://www.w3.org/2000/svg" xmlns:xlink="http://www.w3.org/1999/xlink" x="0px" y="0px"
	 viewBox="0 0 620.1 134.3" style="enable-background:new 0 0 620.1 134.3;" xml:space="preserve">
<style type="text/css">
	.st0{display:none;}
	.st1{display:inline;fill:#00324A;}
	.st2{display:inline;}
	.st3{fill:#00324A;}
	.st4{fill:#9A999E;}
	.st5{fill:#473D88;}
	.st6{fill-rule:evenodd;clip-rule:evenodd;fill:#C8B480;}
	.st7{fill-rule:evenodd;clip-rule:evenodd;fill:#004066;}
	.st8{fill:#B3A072;}
	.st9{fill-rule:evenodd;clip-rule:evenodd;fill:#AED1ED;}
	.st10{fill-rule:evenodd;clip-rule:evenodd;fill:#FFFFFF;}
	.st11{fill-rule:evenodd;clip-rule:evenodd;fill:#219687;}
</style>
<g class="st0">
	<path class="st1" d="M7898.1,5590.3c0-1.1-0.8-2-2.2-2h-2.7v6.5h1.2v-2.4h1.2l1.3,2.4h1.4l-1.4-2.6
		C7897.1,5592.1,7898.1,5591.7,7898.1,5590.3z M7895.7,5591.3h-1.3v-2h1.2c0.9,0,1.3,0.4,1.3,1
		C7896.8,5591,7896.3,5591.3,7895.7,5591.3z"/>
	<path class="st1" d="M7895.5,5585c-3.7,0-6.7,3-6.7,6.7c0,3.7,3,6.7,6.7,6.7c3.7,0,6.7-3,6.7-6.7
		C7902.2,5588,7899.2,5585,7895.5,5585z M7895.5,5597.3c-3.1,0-5.6-2.5-5.6-5.6c0-3.1,2.5-5.6,5.6-5.6c3.1,0,5.6,2.5,5.6,5.6
		C7901.1,5594.8,7898.6,5597.3,7895.5,5597.3z"/>
	<g class="st2">
		<path class="st3" d="M7599.5,5649.6h-24.3c-3,0-8-0.8-8-6.1c0-3.5,1.6-5.9,3.9-8.2c4.6,2.5,10.3,3.8,16.8,3.8
			c18.1,0,29.8-10.6,29.8-27.1c0-7.9-2.9-15-8.1-20h13.3c0.5,0,1-0.5,1-1v-5.1c0-0.6-0.4-1-1-1h-27.2c-2.8-0.5-5.3-0.8-7.8-0.8
			c-20.6,0-29.8,14-29.8,27.9c0,7.6,2.6,14.3,7.2,19c-4,3.6-6,7.7-6,12.5c0,4.7,1.9,8.4,5.4,10.7c-9,4.9-13.9,12.1-13.9,20.2
			c0,15.5,11.8,23.3,35.2,23.3c24.3,0,38.8-10,38.8-26.8C7624.9,5656.9,7616.1,5649.6,7599.5,5649.6z M7586.1,5690.6
			c-24.3,0-27.1-9.3-27.1-16.2c0-9.1,8.5-14.4,15.6-17.3h24.8c12.2,0,17.6,4.3,17.6,13.9C7617,5687.1,7600.2,5690.6,7586.1,5690.6z
			 M7588,5591.2c16.2,0,21.9,11.2,21.9,20.8c0,12.5-8.2,20-21.9,20c-13.7,0-21.9-7.5-21.9-20
			C7566.1,5602.4,7571.8,5591.2,7588,5591.2z"/>
		<path class="st3" d="M7880.1,5585.1h-29.4c-0.5,0-1,0.5-1,1v5.1c0,0.6,0.5,1,1,1h12.7l-0.1,0.2c-0.3,0.8-0.6,1.9-0.8,2.5
			l-24.6,60.3l-26.6-63h12.9c0.6,0,1-0.4,1-1v-5.1c0-0.5-0.4-1-1-1H7790c-0.5,0-1,0.5-1,1v5.1c0,0.6,0.5,1,1,1h9c2.2,0,4.5,2,5.9,5
			l28.9,67.7c-5.9,13.5-11.7,20.4-20.7,24.5c0,0-2.7,1.4-8.9,1.4c-0.6,0-1,0.4-1,1v5.6c0,0.5,0.4,1,1,1h0.6c2,0,8.7-0.1,12.7-2.1
			c9.9-4.7,18.1-15.3,24.6-31.3l27.9-68.2c1.2-3,3.1-4.7,5.2-4.7h5c0.5,0,1-0.4,1-1v-5.1C7881.1,5585.6,7880.6,5585.1,7880.1,5585.1
			z"/>
		<path class="st3" d="M7459.8,5649.9h-5.1c-0.5,0-1,0.5-1,1v10.5c0,1.2-1.3,2.5-2.5,2.5h-44.6c-1.2,0-2.5-1.3-2.5-2.5l0-99.2
			c0-1.2,1.3-2.5,2.5-2.5h10.5c0.6,0,1-0.4,1-1v-5.1c0-0.6-0.4-1-1-1h-33.3c-0.5,0-1,0.5-1,1v5.1c0,0.6,0.5,1,1,1h9.9
			c1.2,0,2.5,1.3,2.5,2.5v99.2c0,1.2-1.3,2.5-2.5,2.5h-9.2c-0.6,0-1,0.4-1,1v5c0,0.6,0.5,1,1,1l72.2,0c3,0,4.1-2.1,4.1-3.8v-16.2
			C7460.8,5650.3,7460.3,5649.9,7459.8,5649.9z"/>
		<path class="st3" d="M7708.1,5664.6h-8.4h0c-2.5-0.3-3.8-1.6-3.8-7.8v-50.1c0-15-9.2-22.7-27.3-22.7c-14.7,0-24.6,4.1-30.4,7.6
			l-0.7,0.4c-0.3,0.2-0.5,0.5-0.5,0.8c0,0.1,0,0.1,0.1,0.2l4.5,6.1c0,0.1,0.1,0.1,0.2,0.1c0.3,0,0.5-0.1,0.7-0.3l0.4-0.3
			c3.2-2.8,10.7-7.4,25.4-7.4c14.2,0,19.7,4.7,19.7,16.8v12.8c-3.1,0-20.3,0-20.9,0c-22.4,0-35.3,9.3-35.3,25.5
			c0,16.2,10.2,25.5,27.9,25.5c15.4,0,23.6-6.5,28.4-11.7c0.6,7.4,4.4,11.2,11.5,11.6c0,0,0,0,0.1,0h8.4c0.2,0,0.3-0.1,0.3-0.3v-6.7
			C7708.5,5664.8,7708.3,5664.6,7708.1,5664.6z M7659.9,5664.9c-9.2,0-20.2-3.2-20.2-18.6c0-15.9,17.3-18.3,27.6-18.3
			c0.5,0,17.4,0,20.7,0v0.9c0,0.1,0,0.1,0.1,0.2v20.7C7681.3,5658.8,7673.9,5664.9,7659.9,5664.9z"/>
		<path class="st3" d="M7507.1,5583.7c-23.5,0-40.6,18.8-40.6,44.8c0,25.9,18.5,44.8,44,44.8c11.6,0,21-4.4,28.8-13.6
			c0.2-0.2,0.2-0.4,0.2-0.7c0-0.3-0.1-0.5-0.3-0.7l-4.6-3.9c-0.4-0.3-1-0.3-1.4,0.1c-6.3,7.4-13.5,10.8-22.7,10.8
			c-20.6,0-35.4-14.5-36-35.3h70.4c0.5,0,1-0.4,1-1v-3C7545.9,5599.5,7531.4,5583.7,7507.1,5583.7z M7507.1,5591.7
			c18.2,0,29.4,11,30.7,30.2H7475C7477.4,5603.5,7490,5591.7,7507.1,5591.7z"/>
		<path class="st3" d="M7785.6,5654.5l-5.3-2.9c-0.5-0.3-1.1-0.1-1.3,0.4c-4.9,8.9-13.5,13.2-26.2,13.2c-19.8,0-34.2-15.2-34.2-36.2
			c0-22.7,13.4-37.3,34.1-37.3c13.4,0,18.4,3.2,25.9,10.1c0.4,0.3,1,0.3,1.4-0.1l4.1-4.5c0.2-0.2,0.3-0.4,0.3-0.7
			c0-0.3-0.1-0.5-0.3-0.7c-8.1-7.4-14.6-12.2-31.3-12.2c-25.2,0-42.1,18.2-42.1,45.3c0,25.6,17.8,44.2,42.2,44.2
			c15.7,0,26.9-5.8,33.2-17.4c0.1-0.2,0.1-0.5,0.1-0.8C7786,5654.8,7785.9,5654.6,7785.6,5654.5z"/>
	</g>
</g>
<g class="st0">
	<g class="st2">
		<path class="st3" d="M5659.5,5284.2h1.5v10.2h4.9v1.2h-6.4V5284.2z"/>
		<path class="st3" d="M5675.2,5290.3h-4.5v4.1h5v1.2h-6.4v-11.5h6.2v1.2h-4.7v3.6h4.5V5290.3z"/>
		<path class="st3" d="M5688.1,5295.2c-0.7,0.2-2,0.6-3.5,0.6c-1.7,0-3.2-0.4-4.3-1.5c-1-1-1.6-2.5-1.6-4.3c0-3.4,2.4-5.9,6.2-5.9
			c1.3,0,2.4,0.3,2.9,0.5l-0.4,1.2c-0.6-0.3-1.4-0.5-2.5-0.5c-2.8,0-4.6,1.7-4.6,4.6c0,2.9,1.8,4.6,4.4,4.6c1,0,1.6-0.1,2-0.3v-3.4
			h-2.3v-1.2h3.8V5295.2z"/>
		<path class="st3" d="M5693.9,5292.1l-1.2,3.6h-1.5l3.9-11.5h1.8l3.9,11.5h-1.6l-1.2-3.6H5693.9z M5697.6,5290.9l-1.1-3.3
			c-0.3-0.7-0.4-1.4-0.6-2.1h0c-0.2,0.7-0.4,1.4-0.6,2.1l-1.1,3.3H5697.6z"/>
		<path class="st3" d="M5711.9,5295.3c-0.5,0.3-1.6,0.5-3,0.5c-3.2,0-5.7-2-5.7-5.8c0-3.6,2.4-6,6-6c1.4,0,2.3,0.3,2.7,0.5l-0.4,1.2
			c-0.6-0.3-1.4-0.5-2.3-0.5c-2.7,0-4.5,1.7-4.5,4.7c0,2.8,1.6,4.6,4.4,4.6c0.9,0,1.8-0.2,2.4-0.5L5711.9,5295.3z"/>
		<path class="st3" d="M5718,5295.7v-4.9l-3.6-6.6h1.7l1.6,3.2c0.4,0.9,0.8,1.6,1.1,2.4h0c0.3-0.7,0.7-1.5,1.2-2.4l1.6-3.2h1.7
			l-3.8,6.6v4.9H5718z"/>
		<path class="st3" d="M5733.2,5284.2v11.5h-1.5v-11.5H5733.2z"/>
		<path class="st3" d="M5737.4,5284.4c0.9-0.1,2-0.2,3.1-0.2c2.1,0,3.6,0.5,4.6,1.4c1,0.9,1.6,2.3,1.6,4.1c0,1.9-0.6,3.4-1.6,4.5
			c-1.1,1.1-2.8,1.6-5.1,1.6c-1.1,0-1.9-0.1-2.7-0.1V5284.4z M5738.9,5294.5c0.4,0.1,0.9,0.1,1.5,0.1c3.2,0,4.9-1.8,4.9-4.9
			c0-2.7-1.5-4.4-4.6-4.4c-0.8,0-1.3,0.1-1.7,0.2V5294.5z"/>
		<path class="st3" d="M5756.4,5290.3h-4.5v4.1h5v1.2h-6.4v-11.5h6.2v1.2h-4.7v3.6h4.5V5290.3z"/>
		<path class="st3" d="M5760.5,5295.7v-11.5h1.6l3.7,5.8c0.8,1.3,1.5,2.5,2.1,3.7l0,0c-0.1-1.5-0.2-2.9-0.2-4.7v-4.8h1.4v11.5h-1.5
			l-3.6-5.8c-0.8-1.3-1.6-2.6-2.1-3.8l-0.1,0c0.1,1.4,0.1,2.8,0.1,4.7v4.9H5760.5z"/>
		<path class="st3" d="M5775.6,5285.5h-3.5v-1.3h8.5v1.3h-3.5v10.2h-1.5V5285.5z"/>
		<path class="st3" d="M5785,5284.2v11.5h-1.5v-11.5H5785z"/>
		<path class="st3" d="M5791.5,5285.5h-3.5v-1.3h8.5v1.3h-3.5v10.2h-1.5V5285.5z"/>
		<path class="st3" d="M5802.5,5295.7v-4.9l-3.6-6.6h1.7l1.6,3.2c0.4,0.9,0.8,1.6,1.1,2.4h0c0.3-0.7,0.7-1.5,1.2-2.4l1.6-3.2h1.7
			l-3.8,6.6v4.9H5802.5z"/>
		<path class="st3" d="M5814.8,5296.4l4.7-12.3h1.2l-4.8,12.3H5814.8z"/>
		<path class="st3" d="M5837,5295.3c-0.5,0.3-1.6,0.5-3,0.5c-3.2,0-5.7-2-5.7-5.8c0-3.6,2.4-6,6-6c1.4,0,2.3,0.3,2.7,0.5l-0.4,1.2
			c-0.6-0.3-1.4-0.5-2.3-0.5c-2.7,0-4.5,1.7-4.5,4.7c0,2.8,1.6,4.6,4.4,4.6c0.9,0,1.8-0.2,2.4-0.5L5837,5295.3z"/>
		<path class="st3" d="M5850,5289.8c0,3.9-2.4,6-5.3,6c-3,0-5.2-2.3-5.2-5.8c0-3.6,2.3-6,5.3-6C5848,5284,5850,5286.4,5850,5289.8z
			 M5841.1,5290c0,2.4,1.3,4.6,3.7,4.6c2.3,0,3.7-2.2,3.7-4.8c0-2.3-1.2-4.7-3.7-4.7C5842.3,5285.2,5841.1,5287.5,5841.1,5290z"/>
		<path class="st3" d="M5853.6,5284.2h1.5v10.2h4.9v1.2h-6.4V5284.2z"/>
		<path class="st3" d="M5872.5,5289.8c0,3.9-2.4,6-5.3,6c-3,0-5.2-2.3-5.2-5.8c0-3.6,2.3-6,5.3-6
			C5870.4,5284,5872.5,5286.4,5872.5,5289.8z M5863.6,5290c0,2.4,1.3,4.6,3.7,4.6c2.3,0,3.7-2.2,3.7-4.8c0-2.3-1.2-4.7-3.7-4.7
			C5864.8,5285.2,5863.6,5287.5,5863.6,5290z"/>
		<path class="st3" d="M5876.1,5284.4c0.7-0.2,1.8-0.2,2.8-0.2c1.6,0,2.6,0.3,3.3,0.9c0.6,0.5,0.9,1.3,0.9,2.2c0,1.5-1,2.5-2.2,2.9
			v0.1c0.9,0.3,1.4,1.1,1.7,2.3c0.4,1.6,0.6,2.7,0.9,3.1h-1.5c-0.2-0.3-0.4-1.3-0.8-2.7c-0.3-1.6-1-2.2-2.3-2.2h-1.4v5h-1.5V5284.4z
			 M5877.6,5289.6h1.5c1.6,0,2.6-0.9,2.6-2.2c0-1.5-1.1-2.1-2.6-2.1c-0.7,0-1.2,0.1-1.5,0.1V5289.6z"/>
		<path class="st3" d="M5892.2,5284.4c0.7-0.1,1.6-0.2,2.8-0.2c1.5,0,2.5,0.3,3.2,1c0.6,0.5,1,1.4,1,2.4c0,1-0.3,1.9-0.9,2.4
			c-0.8,0.8-2.1,1.3-3.5,1.3c-0.4,0-0.8,0-1.2-0.1v4.6h-1.5V5284.4z M5893.7,5289.9c0.3,0.1,0.7,0.1,1.2,0.1c1.8,0,2.9-0.9,2.9-2.4
			c0-1.5-1.1-2.2-2.7-2.2c-0.6,0-1.1,0.1-1.4,0.1V5289.9z"/>
		<path class="st3" d="M5903.4,5292.1l-1.2,3.6h-1.5l3.9-11.5h1.8l3.9,11.5h-1.6l-1.2-3.6H5903.4z M5907.2,5290.9l-1.1-3.3
			c-0.3-0.7-0.4-1.4-0.6-2.1h0c-0.2,0.7-0.4,1.4-0.6,2.1l-1.1,3.3H5907.2z"/>
		<path class="st3" d="M5913.6,5284.2h1.5v10.2h4.9v1.2h-6.4V5284.2z"/>
		<path class="st3" d="M5929.3,5290.3h-4.5v4.1h5v1.2h-6.4v-11.5h6.2v1.2h-4.7v3.6h4.5V5290.3z"/>
		<path class="st3" d="M5935.9,5285.5h-3.5v-1.3h8.5v1.3h-3.5v10.2h-1.5V5285.5z"/>
		<path class="st3" d="M5946.7,5285.5h-3.5v-1.3h8.5v1.3h-3.5v10.2h-1.5V5285.5z"/>
		<path class="st3" d="M5960.6,5290.3h-4.5v4.1h5v1.2h-6.4v-11.5h6.2v1.2h-4.7v3.6h4.5V5290.3z"/>
		<path class="st3" d="M5964.2,5294.8c0-0.6,0.4-1.1,1-1.1s1,0.4,1,1.1c0,0.6-0.4,1.1-1,1.1
			C5964.6,5295.9,5964.2,5295.4,5964.2,5294.8z"/>
	</g>
</g>
<g class="st0">
	<g class="st2">
		<path class="st4" d="M7518.7,6616c0.5-0.1,1.3-0.2,2.2-0.2c1.1,0,1.9,0.3,2.5,0.7c0.5,0.4,0.8,1.1,0.8,1.8c0,0.8-0.2,1.4-0.7,1.9
			c-0.6,0.6-1.6,1-2.7,1c-0.3,0-0.7,0-0.9-0.1v3.5h-1.1V6616z M7519.8,6620.2c0.2,0.1,0.6,0.1,0.9,0.1c1.4,0,2.2-0.7,2.2-1.9
			c0-1.2-0.8-1.7-2.1-1.7c-0.5,0-0.9,0-1.1,0.1V6620.2z"/>
		<path class="st4" d="M7526.6,6621.9l-0.9,2.8h-1.2l3-8.8h1.4l3,8.8h-1.2l-0.9-2.8H7526.6z M7529.5,6621l-0.9-2.5
			c-0.2-0.6-0.3-1.1-0.5-1.6h0c-0.1,0.5-0.3,1.1-0.4,1.6l-0.9,2.5H7529.5z"/>
		<path class="st4" d="M7533.8,6624.7v-8.8h1.2l2.8,4.4c0.7,1,1.2,2,1.6,2.8l0,0c-0.1-1.2-0.1-2.2-0.1-3.6v-3.7h1.1v8.8h-1.1
			l-2.8-4.4c-0.6-1-1.2-2-1.6-2.9l0,0c0.1,1.1,0.1,2.2,0.1,3.6v3.7H7533.8z"/>
		<path class="st4" d="M7544.7,6616.9h-2.7v-1h6.5v1h-2.7v7.8h-1.1V6616.9z"/>
		<path class="st4" d="M7557.2,6620.2c0,3-1.8,4.6-4.1,4.6c-2.3,0-3.9-1.8-3.9-4.4c0-2.8,1.7-4.6,4.1-4.6
			C7555.7,6615.8,7557.2,6617.6,7557.2,6620.2z M7550.4,6620.3c0,1.9,1,3.5,2.8,3.5c1.8,0,2.8-1.7,2.8-3.6c0-1.7-0.9-3.6-2.8-3.6
			C7551.4,6616.7,7550.4,6618.4,7550.4,6620.3z"/>
		<path class="st4" d="M7559.4,6624.7v-8.8h1.2l2.8,4.4c0.7,1,1.2,2,1.6,2.8l0,0c-0.1-1.2-0.1-2.2-0.1-3.6v-3.7h1.1v8.8h-1.1
			l-2.8-4.4c-0.6-1-1.2-2-1.6-2.9l0,0c0.1,1.1,0.1,2.2,0.1,3.6v3.7H7559.4z"/>
		<path class="st4" d="M7573.1,6620.6h-3.4v3.2h3.8v0.9h-4.9v-8.8h4.7v0.9h-3.6v2.8h3.4V6620.6z"/>
		<path class="st4" d="M7520.8,6632.9L7520.8,6632.9l-1.5,0.8l-0.2-0.9l1.8-1h1v8.5h-1.1V6632.9z"/>
		<path class="st4" d="M7531.1,6631.8v0.8l-3.7,7.7h-1.2l3.7-7.5v0h-4.1v-0.9H7531.1z"/>
		<path class="st4" d="M7533.6,6639.5c0.2,0,0.5,0,0.9,0c0.7-0.1,1.3-0.4,1.8-0.8c0.6-0.5,1-1.2,1.1-2.2h0c-0.5,0.6-1.1,0.9-2,0.9
			c-1.5,0-2.5-1.1-2.5-2.6c0-1.6,1.2-3,2.9-3c1.7,0,2.8,1.4,2.8,3.6c0,1.9-0.6,3.2-1.5,4c-0.7,0.6-1.5,1-2.5,1.1
			c-0.4,0.1-0.8,0.1-1.1,0.1V6639.5z M7534,6634.6c0,1.1,0.6,1.8,1.6,1.8c0.8,0,1.4-0.4,1.7-0.9c0.1-0.1,0.1-0.2,0.1-0.4
			c0-1.4-0.5-2.5-1.7-2.5C7534.7,6632.5,7534,6633.4,7534,6634.6z"/>
		<path class="st4" d="M7545.3,6632.8h-3.2l-0.3,2.2c0.2,0,0.4-0.1,0.7-0.1c0.7,0,1.3,0.1,1.8,0.5c0.7,0.4,1.2,1.1,1.2,2.2
			c0,1.7-1.3,2.9-3.1,2.9c-0.9,0-1.7-0.3-2.1-0.5l0.3-0.9c0.4,0.2,1,0.5,1.8,0.5c1.1,0,2-0.7,2-1.8c0-1.1-0.7-1.9-2.4-1.9
			c-0.5,0-0.9,0.1-1.2,0.1l0.5-4.1h4V6632.8z"/>
		<path class="st4" d="M7557.5,6640c-0.4,0.2-1.2,0.4-2.3,0.4c-2.5,0-4.3-1.6-4.3-4.4c0-2.7,1.9-4.6,4.6-4.6c1.1,0,1.8,0.2,2.1,0.4
			l-0.3,0.9c-0.4-0.2-1-0.4-1.8-0.4c-2.1,0-3.4,1.3-3.4,3.6c0,2.1,1.2,3.5,3.4,3.5c0.7,0,1.4-0.1,1.8-0.4L7557.5,6640z"/>
	</g>
</g>
<g class="st0">
	<g class="st2">
		<path class="st4" d="M7611.7,6616c0.5-0.1,1.3-0.2,2.2-0.2c1.1,0,1.9,0.3,2.5,0.7c0.5,0.4,0.8,1.1,0.8,1.8c0,0.8-0.2,1.4-0.7,1.9
			c-0.6,0.6-1.6,1-2.7,1c-0.3,0-0.7,0-0.9-0.1v3.5h-1.1V6616z M7612.8,6620.2c0.2,0.1,0.6,0.1,0.9,0.1c1.4,0,2.2-0.7,2.2-1.9
			c0-1.2-0.8-1.7-2.1-1.7c-0.5,0-0.9,0-1.1,0.1V6620.2z"/>
		<path class="st4" d="M7619.6,6621.9l-0.9,2.8h-1.2l3-8.8h1.4l3,8.8h-1.2l-0.9-2.8H7619.6z M7622.5,6621l-0.9-2.5
			c-0.2-0.6-0.3-1.1-0.5-1.6h0c-0.1,0.5-0.3,1.1-0.4,1.6l-0.9,2.5H7622.5z"/>
		<path class="st4" d="M7626.8,6624.7v-8.8h1.2l2.8,4.4c0.7,1,1.2,2,1.6,2.8l0,0c-0.1-1.2-0.1-2.2-0.1-3.6v-3.7h1.1v8.8h-1.1
			l-2.8-4.4c-0.6-1-1.2-2-1.6-2.9l0,0c0.1,1.1,0.1,2.2,0.1,3.6v3.7H7626.8z"/>
		<path class="st4" d="M7637.7,6616.9h-2.7v-1h6.5v1h-2.7v7.8h-1.1V6616.9z"/>
		<path class="st4" d="M7650.2,6620.2c0,3-1.8,4.6-4.1,4.6c-2.3,0-3.9-1.8-3.9-4.4c0-2.8,1.7-4.6,4.1-4.6
			C7648.7,6615.8,7650.2,6617.6,7650.2,6620.2z M7643.4,6620.3c0,1.9,1,3.5,2.8,3.5c1.8,0,2.8-1.7,2.8-3.6c0-1.7-0.9-3.6-2.8-3.6
			C7644.4,6616.7,7643.4,6618.4,7643.4,6620.3z"/>
		<path class="st4" d="M7652.4,6624.7v-8.8h1.2l2.8,4.4c0.7,1,1.2,2,1.6,2.8l0,0c-0.1-1.2-0.1-2.2-0.1-3.6v-3.7h1.1v8.8h-1.1
			l-2.8-4.4c-0.6-1-1.2-2-1.6-2.9l0,0c0.1,1.1,0.1,2.2,0.1,3.6v3.7H7652.4z"/>
		<path class="st4" d="M7666.1,6620.6h-3.4v3.2h3.8v0.9h-4.9v-8.8h4.7v0.9h-3.6v2.8h3.4V6620.6z"/>
		<path class="st4" d="M7613.8,6632.9L7613.8,6632.9l-1.5,0.8l-0.2-0.9l1.8-1h1v8.5h-1.1V6632.9z"/>
		<path class="st4" d="M7624.1,6631.8v0.8l-3.7,7.7h-1.2l3.7-7.5v0h-4.1v-0.9H7624.1z"/>
		<path class="st4" d="M7626.6,6639.5c0.2,0,0.5,0,0.9,0c0.7-0.1,1.3-0.4,1.8-0.8c0.6-0.5,1-1.2,1.1-2.2h0c-0.5,0.6-1.1,0.9-2,0.9
			c-1.5,0-2.5-1.1-2.5-2.6c0-1.6,1.2-3,2.9-3c1.7,0,2.8,1.4,2.8,3.6c0,1.9-0.6,3.2-1.5,4c-0.7,0.6-1.5,1-2.5,1.1
			c-0.4,0.1-0.8,0.1-1.1,0.1V6639.5z M7627,6634.6c0,1.1,0.6,1.8,1.6,1.8c0.8,0,1.4-0.4,1.7-0.9c0.1-0.1,0.1-0.2,0.1-0.4
			c0-1.4-0.5-2.5-1.7-2.5C7627.7,6632.5,7627,6633.4,7627,6634.6z"/>
		<path class="st4" d="M7638.3,6632.8h-3.2l-0.3,2.2c0.2,0,0.4-0.1,0.7-0.1c0.7,0,1.3,0.1,1.8,0.5c0.7,0.4,1.2,1.1,1.2,2.2
			c0,1.7-1.3,2.9-3.1,2.9c-0.9,0-1.7-0.3-2.1-0.5l0.3-0.9c0.4,0.2,1,0.5,1.8,0.5c1.1,0,2-0.7,2-1.8c0-1.1-0.7-1.9-2.4-1.9
			c-0.5,0-0.9,0.1-1.2,0.1l0.5-4.1h4V6632.8z"/>
		<path class="st4" d="M7650.5,6640c-0.4,0.2-1.2,0.4-2.3,0.4c-2.5,0-4.3-1.6-4.3-4.4c0-2.7,1.9-4.6,4.6-4.6c1.1,0,1.8,0.2,2.1,0.4
			l-0.3,0.9c-0.4-0.2-1-0.4-1.8-0.4c-2.1,0-3.4,1.3-3.4,3.6c0,2.1,1.2,3.5,3.4,3.5c0.7,0,1.4-0.1,1.8-0.4L7650.5,6640z"/>
	</g>
</g>
<g class="st0">
	<g class="st2">
		<path class="st4" d="M7704.7,6616c0.5-0.1,1.3-0.2,2.2-0.2c1.1,0,1.9,0.3,2.5,0.7c0.5,0.4,0.8,1.1,0.8,1.8c0,0.8-0.2,1.4-0.7,1.9
			c-0.6,0.6-1.6,1-2.7,1c-0.3,0-0.7,0-0.9-0.1v3.5h-1.1V6616z M7705.8,6620.2c0.2,0.1,0.6,0.1,0.9,0.1c1.4,0,2.2-0.7,2.2-1.9
			c0-1.2-0.8-1.7-2.1-1.7c-0.5,0-0.9,0-1.1,0.1V6620.2z"/>
		<path class="st4" d="M7712.6,6621.9l-0.9,2.8h-1.2l3-8.8h1.4l3,8.8h-1.2l-0.9-2.8H7712.6z M7715.5,6621l-0.9-2.5
			c-0.2-0.6-0.3-1.1-0.5-1.6h0c-0.1,0.5-0.3,1.1-0.4,1.6l-0.9,2.5H7715.5z"/>
		<path class="st4" d="M7719.8,6624.7v-8.8h1.2l2.8,4.4c0.7,1,1.2,2,1.6,2.8l0,0c-0.1-1.2-0.1-2.2-0.1-3.6v-3.7h1.1v8.8h-1.1
			l-2.8-4.4c-0.6-1-1.2-2-1.6-2.9l0,0c0.1,1.1,0.1,2.2,0.1,3.6v3.7H7719.8z"/>
		<path class="st4" d="M7730.7,6616.9h-2.7v-1h6.5v1h-2.7v7.8h-1.1V6616.9z"/>
		<path class="st4" d="M7743.2,6620.2c0,3-1.8,4.6-4.1,4.6c-2.3,0-3.9-1.8-3.9-4.4c0-2.8,1.7-4.6,4.1-4.6
			C7741.7,6615.8,7743.2,6617.6,7743.2,6620.2z M7736.4,6620.3c0,1.9,1,3.5,2.8,3.5c1.8,0,2.8-1.7,2.8-3.6c0-1.7-0.9-3.6-2.8-3.6
			C7737.4,6616.7,7736.4,6618.4,7736.4,6620.3z"/>
		<path class="st4" d="M7745.4,6624.7v-8.8h1.2l2.8,4.4c0.7,1,1.2,2,1.6,2.8l0,0c-0.1-1.2-0.1-2.2-0.1-3.6v-3.7h1.1v8.8h-1.1
			l-2.8-4.4c-0.6-1-1.2-2-1.6-2.9l0,0c0.1,1.1,0.1,2.2,0.1,3.6v3.7H7745.4z"/>
		<path class="st4" d="M7759.1,6620.6h-3.4v3.2h3.8v0.9h-4.9v-8.8h4.7v0.9h-3.6v2.8h3.4V6620.6z"/>
		<path class="st4" d="M7706.8,6632.9L7706.8,6632.9l-1.5,0.8l-0.2-0.9l1.8-1h1v8.5h-1.1V6632.9z"/>
		<path class="st4" d="M7717.1,6631.8v0.8l-3.7,7.7h-1.2l3.7-7.5v0h-4.1v-0.9H7717.1z"/>
		<path class="st4" d="M7719.6,6639.5c0.2,0,0.5,0,0.9,0c0.7-0.1,1.3-0.4,1.8-0.8c0.6-0.5,1-1.2,1.1-2.2h0c-0.5,0.6-1.1,0.9-2,0.9
			c-1.5,0-2.5-1.1-2.5-2.6c0-1.6,1.2-3,2.9-3c1.7,0,2.8,1.4,2.8,3.6c0,1.9-0.6,3.2-1.5,4c-0.7,0.6-1.5,1-2.5,1.1
			c-0.4,0.1-0.8,0.1-1.1,0.1V6639.5z M7720,6634.6c0,1.1,0.6,1.8,1.6,1.8c0.8,0,1.4-0.4,1.7-0.9c0.1-0.1,0.1-0.2,0.1-0.4
			c0-1.4-0.5-2.5-1.7-2.5C7720.7,6632.5,7720,6633.4,7720,6634.6z"/>
		<path class="st4" d="M7731.3,6632.8h-3.2l-0.3,2.2c0.2,0,0.4-0.1,0.7-0.1c0.7,0,1.3,0.1,1.8,0.5c0.7,0.4,1.2,1.1,1.2,2.2
			c0,1.7-1.3,2.9-3.1,2.9c-0.9,0-1.7-0.3-2.1-0.5l0.3-0.9c0.4,0.2,1,0.5,1.8,0.5c1.1,0,2-0.7,2-1.8c0-1.1-0.7-1.9-2.4-1.9
			c-0.5,0-0.9,0.1-1.2,0.1l0.5-4.1h4V6632.8z"/>
		<path class="st4" d="M7743.5,6640c-0.4,0.2-1.2,0.4-2.3,0.4c-2.5,0-4.3-1.6-4.3-4.4c0-2.7,1.9-4.6,4.6-4.6c1.1,0,1.8,0.2,2.1,0.4
			l-0.3,0.9c-0.4-0.2-1-0.4-1.8-0.4c-2.1,0-3.4,1.3-3.4,3.6c0,2.1,1.2,3.5,3.4,3.5c0.7,0,1.4-0.1,1.8-0.4L7743.5,6640z"/>
	</g>
</g>
<g class="st0">
	<g class="st2">
		<path class="st4" d="M7797.7,6616c0.5-0.1,1.3-0.2,2.2-0.2c1.1,0,1.9,0.3,2.5,0.7c0.5,0.4,0.8,1.1,0.8,1.8c0,0.8-0.2,1.4-0.7,1.9
			c-0.6,0.6-1.6,1-2.7,1c-0.3,0-0.7,0-0.9-0.1v3.5h-1.1V6616z M7798.8,6620.2c0.2,0.1,0.6,0.1,0.9,0.1c1.4,0,2.2-0.7,2.2-1.9
			c0-1.2-0.8-1.7-2.1-1.7c-0.5,0-0.9,0-1.1,0.1V6620.2z"/>
		<path class="st4" d="M7805.6,6621.9l-0.9,2.8h-1.2l3-8.8h1.4l3,8.8h-1.2l-0.9-2.8H7805.6z M7808.5,6621l-0.9-2.5
			c-0.2-0.6-0.3-1.1-0.5-1.6h0c-0.1,0.5-0.3,1.1-0.4,1.6l-0.9,2.5H7808.5z"/>
		<path class="st4" d="M7812.8,6624.7v-8.8h1.2l2.8,4.4c0.7,1,1.2,2,1.6,2.8l0,0c-0.1-1.2-0.1-2.2-0.1-3.6v-3.7h1.1v8.8h-1.1
			l-2.8-4.4c-0.6-1-1.2-2-1.6-2.9l0,0c0.1,1.1,0.1,2.2,0.1,3.6v3.7H7812.8z"/>
		<path class="st4" d="M7823.7,6616.9h-2.7v-1h6.5v1h-2.7v7.8h-1.1V6616.9z"/>
		<path class="st4" d="M7836.2,6620.2c0,3-1.8,4.6-4.1,4.6c-2.3,0-3.9-1.8-3.9-4.4c0-2.8,1.7-4.6,4.1-4.6
			C7834.7,6615.8,7836.2,6617.6,7836.2,6620.2z M7829.4,6620.3c0,1.9,1,3.5,2.8,3.5c1.8,0,2.8-1.7,2.8-3.6c0-1.7-0.9-3.6-2.8-3.6
			C7830.4,6616.7,7829.4,6618.4,7829.4,6620.3z"/>
		<path class="st4" d="M7838.4,6624.7v-8.8h1.2l2.8,4.4c0.7,1,1.2,2,1.6,2.8l0,0c-0.1-1.2-0.1-2.2-0.1-3.6v-3.7h1.1v8.8h-1.1
			l-2.8-4.4c-0.6-1-1.2-2-1.6-2.9l0,0c0.1,1.1,0.1,2.2,0.1,3.6v3.7H7838.4z"/>
		<path class="st4" d="M7852.1,6620.6h-3.4v3.2h3.8v0.9h-4.9v-8.8h4.7v0.9h-3.6v2.8h3.4V6620.6z"/>
		<path class="st4" d="M7799.8,6632.9L7799.8,6632.9l-1.5,0.8l-0.2-0.9l1.8-1h1v8.5h-1.1V6632.9z"/>
		<path class="st4" d="M7810.1,6631.8v0.8l-3.7,7.7h-1.2l3.7-7.5v0h-4.1v-0.9H7810.1z"/>
		<path class="st4" d="M7812.6,6639.5c0.2,0,0.5,0,0.9,0c0.7-0.1,1.3-0.4,1.8-0.8c0.6-0.5,1-1.2,1.1-2.2h0c-0.5,0.6-1.1,0.9-2,0.9
			c-1.5,0-2.5-1.1-2.5-2.6c0-1.6,1.2-3,2.9-3c1.7,0,2.8,1.4,2.8,3.6c0,1.9-0.6,3.2-1.5,4c-0.7,0.6-1.5,1-2.5,1.1
			c-0.4,0.1-0.8,0.1-1.1,0.1V6639.5z M7813,6634.6c0,1.1,0.6,1.8,1.6,1.8c0.8,0,1.4-0.4,1.7-0.9c0.1-0.1,0.1-0.2,0.1-0.4
			c0-1.4-0.5-2.5-1.7-2.5C7813.7,6632.5,7813,6633.4,7813,6634.6z"/>
		<path class="st4" d="M7824.3,6632.8h-3.2l-0.3,2.2c0.2,0,0.4-0.1,0.7-0.1c0.7,0,1.3,0.1,1.8,0.5c0.7,0.4,1.2,1.1,1.2,2.2
			c0,1.7-1.3,2.9-3.1,2.9c-0.9,0-1.7-0.3-2.1-0.5l0.3-0.9c0.4,0.2,1,0.5,1.8,0.5c1.1,0,2-0.7,2-1.8c0-1.1-0.7-1.9-2.4-1.9
			c-0.5,0-0.9,0.1-1.2,0.1l0.5-4.1h4V6632.8z"/>
		<path class="st4" d="M7836.5,6640c-0.4,0.2-1.2,0.4-2.3,0.4c-2.5,0-4.3-1.6-4.3-4.4c0-2.7,1.9-4.6,4.6-4.6c1.1,0,1.8,0.2,2.1,0.4
			l-0.3,0.9c-0.4-0.2-1-0.4-1.8-0.4c-2.1,0-3.4,1.3-3.4,3.6c0,2.1,1.2,3.5,3.4,3.5c0.7,0,1.4-0.1,1.8-0.4L7836.5,6640z"/>
	</g>
</g>
<g class="st0">
	<g class="st2">
		<path class="st4" d="M7890.7,6616c0.5-0.1,1.3-0.2,2.2-0.2c1.1,0,1.9,0.3,2.5,0.7c0.5,0.4,0.8,1.1,0.8,1.8c0,0.8-0.2,1.4-0.7,1.9
			c-0.6,0.6-1.6,1-2.7,1c-0.3,0-0.7,0-0.9-0.1v3.5h-1.1V6616z M7891.8,6620.2c0.2,0.1,0.6,0.1,0.9,0.1c1.4,0,2.2-0.7,2.2-1.9
			c0-1.2-0.8-1.7-2.1-1.7c-0.5,0-0.9,0-1.1,0.1V6620.2z"/>
		<path class="st4" d="M7898.6,6621.9l-0.9,2.8h-1.2l3-8.8h1.4l3,8.8h-1.2l-0.9-2.8H7898.6z M7901.5,6621l-0.9-2.5
			c-0.2-0.6-0.3-1.1-0.5-1.6h0c-0.1,0.5-0.3,1.1-0.4,1.6l-0.9,2.5H7901.5z"/>
		<path class="st4" d="M7905.8,6624.7v-8.8h1.2l2.8,4.4c0.7,1,1.2,2,1.6,2.8l0,0c-0.1-1.2-0.1-2.2-0.1-3.6v-3.7h1.1v8.8h-1.1
			l-2.8-4.4c-0.6-1-1.2-2-1.6-2.9l0,0c0.1,1.1,0.1,2.2,0.1,3.6v3.7H7905.8z"/>
		<path class="st4" d="M7916.7,6616.9h-2.7v-1h6.5v1h-2.7v7.8h-1.1V6616.9z"/>
		<path class="st4" d="M7929.2,6620.2c0,3-1.8,4.6-4.1,4.6c-2.3,0-3.9-1.8-3.9-4.4c0-2.8,1.7-4.6,4.1-4.6
			C7927.7,6615.8,7929.2,6617.6,7929.2,6620.2z M7922.4,6620.3c0,1.9,1,3.5,2.8,3.5c1.8,0,2.8-1.7,2.8-3.6c0-1.7-0.9-3.6-2.8-3.6
			C7923.4,6616.7,7922.4,6618.4,7922.4,6620.3z"/>
		<path class="st4" d="M7931.4,6624.7v-8.8h1.2l2.8,4.4c0.7,1,1.2,2,1.6,2.8l0,0c-0.1-1.2-0.1-2.2-0.1-3.6v-3.7h1.1v8.8h-1.1
			l-2.8-4.4c-0.6-1-1.2-2-1.6-2.9l0,0c0.1,1.1,0.1,2.2,0.1,3.6v3.7H7931.4z"/>
		<path class="st4" d="M7945.1,6620.6h-3.4v3.2h3.8v0.9h-4.9v-8.8h4.7v0.9h-3.6v2.8h3.4V6620.6z"/>
		<path class="st4" d="M7892.8,6632.9L7892.8,6632.9l-1.5,0.8l-0.2-0.9l1.8-1h1v8.5h-1.1V6632.9z"/>
		<path class="st4" d="M7903.1,6631.8v0.8l-3.7,7.7h-1.2l3.7-7.5v0h-4.1v-0.9H7903.1z"/>
		<path class="st4" d="M7905.6,6639.5c0.2,0,0.5,0,0.9,0c0.7-0.1,1.3-0.4,1.8-0.8c0.6-0.5,1-1.2,1.1-2.2h0c-0.5,0.6-1.1,0.9-2,0.9
			c-1.5,0-2.5-1.1-2.5-2.6c0-1.6,1.2-3,2.9-3c1.7,0,2.8,1.4,2.8,3.6c0,1.9-0.6,3.2-1.5,4c-0.7,0.6-1.5,1-2.5,1.1
			c-0.4,0.1-0.8,0.1-1.1,0.1V6639.5z M7906,6634.6c0,1.1,0.6,1.8,1.6,1.8c0.8,0,1.4-0.4,1.7-0.9c0.1-0.1,0.1-0.2,0.1-0.4
			c0-1.4-0.5-2.5-1.7-2.5C7906.7,6632.5,7906,6633.4,7906,6634.6z"/>
		<path class="st4" d="M7917.3,6632.8h-3.2l-0.3,2.2c0.2,0,0.4-0.1,0.7-0.1c0.7,0,1.3,0.1,1.8,0.5c0.7,0.4,1.2,1.1,1.2,2.2
			c0,1.7-1.3,2.9-3.1,2.9c-0.9,0-1.7-0.3-2.1-0.5l0.3-0.9c0.4,0.2,1,0.5,1.8,0.5c1.1,0,2-0.7,2-1.8c0-1.1-0.7-1.9-2.4-1.9
			c-0.5,0-0.9,0.1-1.2,0.1l0.5-4.1h4V6632.8z"/>
		<path class="st4" d="M7929.5,6640c-0.4,0.2-1.2,0.4-2.3,0.4c-2.5,0-4.3-1.6-4.3-4.4c0-2.7,1.9-4.6,4.6-4.6c1.1,0,1.8,0.2,2.1,0.4
			l-0.3,0.9c-0.4-0.2-1-0.4-1.8-0.4c-2.1,0-3.4,1.3-3.4,3.6c0,2.1,1.2,3.5,3.4,3.5c0.7,0,1.4-0.1,1.8-0.4L7929.5,6640z"/>
	</g>
</g>
<g class="st0">
	<g class="st2">
		<path class="st4" d="M7983.8,6616c0.5-0.1,1.3-0.2,2.2-0.2c1.1,0,1.9,0.3,2.5,0.7c0.5,0.4,0.8,1.1,0.8,1.8c0,0.8-0.2,1.4-0.7,1.9
			c-0.6,0.6-1.6,1-2.7,1c-0.3,0-0.7,0-0.9-0.1v3.5h-1.1V6616z M7985,6620.2c0.2,0.1,0.6,0.1,0.9,0.1c1.4,0,2.2-0.7,2.2-1.9
			c0-1.2-0.8-1.7-2.1-1.7c-0.5,0-0.9,0-1.1,0.1V6620.2z"/>
		<path class="st4" d="M7991.7,6621.9l-0.9,2.8h-1.2l3-8.8h1.4l3,8.8h-1.2l-0.9-2.8H7991.7z M7994.6,6621l-0.9-2.5
			c-0.2-0.6-0.3-1.1-0.5-1.6h0c-0.1,0.5-0.3,1.1-0.4,1.6l-0.9,2.5H7994.6z"/>
		<path class="st4" d="M7998.9,6624.7v-8.8h1.2l2.8,4.4c0.7,1,1.2,2,1.6,2.8l0,0c-0.1-1.2-0.1-2.2-0.1-3.6v-3.7h1.1v8.8h-1.1
			l-2.8-4.4c-0.6-1-1.2-2-1.6-2.9l0,0c0.1,1.1,0.1,2.2,0.1,3.6v3.7H7998.9z"/>
		<path class="st4" d="M8009.8,6616.9h-2.7v-1h6.5v1h-2.7v7.8h-1.1V6616.9z"/>
		<path class="st4" d="M8022.4,6620.2c0,3-1.8,4.6-4.1,4.6c-2.3,0-3.9-1.8-3.9-4.4c0-2.8,1.7-4.6,4.1-4.6
			C8020.8,6615.8,8022.4,6617.6,8022.4,6620.2z M8015.6,6620.3c0,1.9,1,3.5,2.8,3.5c1.8,0,2.8-1.7,2.8-3.6c0-1.7-0.9-3.6-2.8-3.6
			C8016.5,6616.7,8015.6,6618.4,8015.6,6620.3z"/>
		<path class="st4" d="M8024.5,6624.7v-8.8h1.2l2.8,4.4c0.7,1,1.2,2,1.6,2.8l0,0c-0.1-1.2-0.1-2.2-0.1-3.6v-3.7h1.1v8.8h-1.1
			l-2.8-4.4c-0.6-1-1.2-2-1.6-2.9l0,0c0.1,1.1,0.1,2.2,0.1,3.6v3.7H8024.5z"/>
		<path class="st4" d="M8038.2,6620.6h-3.4v3.2h3.8v0.9h-4.9v-8.8h4.7v0.9h-3.6v2.8h3.4V6620.6z"/>
		<path class="st4" d="M7985.9,6632.9L7985.9,6632.9l-1.5,0.8l-0.2-0.9l1.8-1h1v8.5h-1.1V6632.9z"/>
		<path class="st4" d="M7996.2,6631.8v0.8l-3.7,7.7h-1.2l3.7-7.5v0h-4.1v-0.9H7996.2z"/>
		<path class="st4" d="M7998.7,6639.5c0.2,0,0.5,0,0.9,0c0.7-0.1,1.3-0.4,1.8-0.8c0.6-0.5,1-1.2,1.1-2.2h0c-0.5,0.6-1.1,0.9-2,0.9
			c-1.5,0-2.5-1.1-2.5-2.6c0-1.6,1.2-3,2.9-3s2.8,1.4,2.8,3.6c0,1.9-0.6,3.2-1.5,4c-0.6,0.6-1.5,1-2.5,1.1c-0.4,0.1-0.8,0.1-1.1,0.1
			V6639.5z M7999.2,6634.6c0,1.1,0.6,1.8,1.6,1.8c0.8,0,1.4-0.4,1.7-0.9c0.1-0.1,0.1-0.2,0.1-0.4c0-1.4-0.5-2.5-1.7-2.5
			C7999.8,6632.5,7999.2,6633.4,7999.2,6634.6z"/>
		<path class="st4" d="M8010.4,6632.8h-3.2l-0.3,2.2c0.2,0,0.4-0.1,0.7-0.1c0.6,0,1.3,0.1,1.8,0.5c0.7,0.4,1.2,1.1,1.2,2.2
			c0,1.7-1.3,2.9-3.1,2.9c-0.9,0-1.7-0.3-2.1-0.5l0.3-0.9c0.3,0.2,1,0.5,1.8,0.5c1.1,0,2-0.7,2-1.8c0-1.1-0.7-1.9-2.4-1.9
			c-0.5,0-0.9,0.1-1.2,0.1l0.5-4.1h4V6632.8z"/>
		<path class="st4" d="M8022.6,6640c-0.4,0.2-1.2,0.4-2.3,0.4c-2.5,0-4.3-1.6-4.3-4.4c0-2.7,1.9-4.6,4.6-4.6c1.1,0,1.8,0.2,2.1,0.4
			l-0.3,0.9c-0.4-0.2-1-0.4-1.8-0.4c-2.1,0-3.4,1.3-3.4,3.6c0,2.1,1.2,3.5,3.4,3.5c0.7,0,1.4-0.1,1.8-0.4L8022.6,6640z"/>
	</g>
</g>
<g>
	<path class="st5" d="M399.2,104.4c0.1,0,0.2,0,0.3,0h40.2c0.4,0,0.7-0.3,0.7-0.7V93.1c0-0.4-0.3-0.7-0.7-0.7h-38
		c-0.5,0-0.9-0.4-0.9-0.9V35.1h-11.2c-0.9,0-1.7,0.7-1.7,1.7v55.9c0,0,0,0,0,0.1l0,0.2C387.9,99.3,393,104.4,399.2,104.4"/>
	<path class="st5" d="M516.6,92.3h-48.2c-0.5,0-0.9-0.4-0.9-0.9V75.3h31.8c0.2,0,0.3-0.2,0.3-0.5V64.6c0-0.3-0.1-0.5-0.3-0.5h-31.8
		V48c0-0.5,0.4-0.9,0.9-0.9h48c0.4,0,0.7-0.3,0.7-0.7V35.8c0-0.4-0.3-0.7-0.7-0.7h-60.1c-0.9,0-1.7,0.7-1.7,1.7v55.9c0,0,0,0,0,0.1
		l0,0.2c0,6.2,4.8,11.2,11,11.4c0.1,0,0.1,0,0.2,0h50.9c0.4,0,0.7-0.3,0.7-0.7V93C517.3,92.6,517,92.3,516.6,92.3"/>
	<g>
		<path class="st5" d="M549.6,56.1c0,0,0.1,0.1,0.1,0.1l0,0l0.1,0.1c0,0.1,0.1,0.1,0.1,0.2c5.5,6.7,17.3,11.6,24,11.6
			c0.1,0,0.1,0,0.1,0l0,0c0.3,0,0.6-0.2,0.7-0.5c0.1-0.3,0.1-0.6-0.1-0.8l-19-23.1l-4.9-5.6c-1.3-1.6-3.5-2.8-5.1-2.8h-9.3
			c-1.2,0-1.7,0.7-1.8,1c-0.4,0.8-0.1,1.8,0.8,2.8L549.6,56.1z"/>
		<path class="st5" d="M580.3,68.1L580.3,68.1c0.1,0,0.1,0,0.2,0c6.7,0,18.5-5,24-11.6c0-0.1,0.1-0.1,0.1-0.2l0.1-0.1
			c0,0,0.1-0.1,0.1-0.1L619.2,39c0.9-1,1.1-2,0.8-2.8c-0.1-0.3-0.6-1-1.8-1h-9.3c-1.6,0-3.8,1.2-5.1,2.7l-4.9,5.7l-19,23.1
			c-0.2,0.2-0.2,0.6-0.1,0.8C579.8,67.9,580.1,68.1,580.3,68.1"/>
		<path class="st5" d="M619.2,100.5l-14.3-17.1c0,0-0.1-0.1-0.1-0.1h0l-0.1-0.1c0-0.1-0.1-0.1-0.1-0.2c-5.5-6.7-17.3-11.6-24-11.6
			c-0.1,0-0.1,0-0.1,0l0,0c-0.3,0-0.6,0.2-0.7,0.5c-0.1,0.3-0.1,0.6,0.1,0.9l19,23.1l4.9,5.6c1.3,1.6,3.5,2.8,5.1,2.8h9.3
			c1.2,0,1.7-0.7,1.8-1C620.3,102.6,620.1,101.6,619.2,100.5"/>
		<path class="st5" d="M574.1,71.5L574.1,71.5c-0.1,0-0.1,0-0.2,0c-6.7,0-18.5,5-24,11.6c0,0.1-0.1,0.1-0.1,0.2l-0.1,0.1
			c0,0-0.1,0.1-0.1,0.1l-14.3,17.1c-0.9,1-1.1,2-0.8,2.8c0.1,0.3,0.6,1,1.8,1h9.3c1.6,0,3.8-1.2,5.1-2.7l4.9-5.7l19-23.1
			c0.2-0.2,0.2-0.6,0.1-0.9C574.7,71.6,574.4,71.5,574.1,71.5"/>
	</g>
	<path class="st5" d="M202.6,35.1h-9.8c-0.9,0-1.7,0.8-1.7,1.7v56.3c-10.8-13.9-40.1-52.4-41.6-54c-3.5-3.9-7.7-4.2-11.6-3.9
		c-4.8,0.3-10.6,4.3-10.6,11.5v55.9c0,0.9,0.8,1.7,1.7,1.7h9.8c0.9,0,1.7-0.8,1.7-1.7V46.2c10.8,13.9,40.1,52.4,41.6,54
		c3.5,3.9,7.7,4.2,11.6,3.9c4.8-0.3,10.6-4.3,10.6-11.5V36.8C204.3,35.8,203.6,35.1,202.6,35.1z"/>
	<path class="st5" d="M253.7,33.4c-20.1,0-36.4,16.3-36.4,36.4c0,20.1,16.3,36.4,36.4,36.4c20.1,0,36.4-16.3,36.4-36.4
		C290,49.6,273.8,33.4,253.7,33.4z M253.7,94.3c-13.6,0-24.6-11-24.6-24.6c0-13.6,11-24.6,24.6-24.6c13.6,0,24.6,11,24.6,24.6
		C278.2,83.3,267.2,94.3,253.7,94.3z"/>
	<path class="st5" d="M361.2,68.1c-0.3-0.2-0.5-0.5-0.5-0.8c0-0.3,0.2-0.7,0.5-0.8l0.1-0.1c0,0,0,0,0,0c2.4-1.5,6.4-5.2,6.4-13
		c0-4.3-1.1-7.8-3.5-10.9c-5.9-7.5-16.4-7.5-22.7-7.5h-34.9c-0.9,0-1.7,0.7-1.7,1.7v55.9c0,0,0,0,0,0.1l0,0.2
		c0,6.2,5,11.3,11.1,11.4c0,0,0.1,0,0.1,0h25.3c7.5,0,16.9,0,23.2-5.3c4-3.3,6.3-8.6,6.3-14.3C371.1,79.4,369.4,72.2,361.2,68.1z
		 M317.9,47.5c0-0.5,0.4-0.9,0.9-0.9h28.4c4.5,0,9,3.6,9,8.1c0,4.5-4.6,8.1-9,8.1h-28.4c-0.5,0-0.9-0.4-0.9-0.9V47.5z M349.6,92.8
		h-30.7c-0.5,0-0.9-0.4-0.9-0.9V75.3c0-0.5,0.4-0.9,0.9-0.9h30.7c5.1,0,10.1,4.1,10.1,9.2C359.7,88.7,354.7,92.8,349.6,92.8z"/>
</g>
<g>
	<polygon class="st6" points="27.5,0 30,7.3 37.8,7.5 31.6,12.2 33.8,19.6 27.5,15.2 21.1,19.6 23.3,12.2 17.2,7.5 24.9,7.3 	"/>
	<polygon class="st6" points="60.6,0 63.1,7.3 70.9,7.5 64.7,12.2 66.9,19.6 60.6,15.2 54.2,19.6 56.4,12.2 50.3,7.5 58,7.3 	"/>
	<g>
		<g>
			<path class="st7" d="M85.2,108.9c0,0,2.5-1.2,4.6-4.7c1.2-2,1.6-3.3,1.6-4.9c0-1.5-0.5-4.5-0.7-5.7c-0.2-1.2-0.6-3.4-0.8-4
				c-0.1-0.5-0.6-0.8-1.1-0.2c-0.5,0.6-2.4,3-3.3,4.3c0,0-0.4-1-0.7-1.7c0.4,0.2,1.8-1.2,2.5-2c0.7-0.8,2.4-2.9,2.9-5.4
				c0.5-2.5-0.8-7-1.1-8.7c-0.4-1.7-0.7-3.2-0.9-3.6c-0.1-0.4-0.7-0.8-1.3,0c0,0,1.2-2.2,1.8-4.2c0.6-2,0.2-3.9-0.1-5.4
				c-0.3-1.5-1.1-4.4-1.3-5.1c-0.2-0.7-0.7-1.1-1.3-0.3c-0.7,0.8-2.1,2.9-2.1,2.9s-1.2-2.5-1.4-2.9c-0.3-0.4-0.8-0.6-1.1,0.1
				c-0.3,0.7-1.1,2.5-1.1,2.5s-1.4-1.9-2.1-2.8c-0.5-0.6-1-0.2-1.1,0.3c-0.1,0.5-0.8,5-0.8,5V25l-61,0v39.1c0,0-0.3-2.4-0.4-3.1
				c-0.1-0.7-0.5-2.7-0.6-3.3c-0.1-0.6-0.6-1-1.1-0.4c-0.5,0.6-2,2.8-2,2.8s-0.9-2-1.2-2.6c-0.3-0.6-0.8-0.5-1.1,0
				c-0.2,0.5-1.4,2.9-1.4,2.9s-2-2.8-2.4-3.1c-0.4-0.4-0.9-0.2-1.1,0.5c-0.2,0.7-0.7,2.7-1.1,4.1c-0.3,1.4-0.7,3.8-0.7,4.7
				c0,0.9,0.9,3.9,2.2,6c0,0-0.3-0.6-0.8-0.5c-0.6,0.1-0.6,0.9-0.9,2c-0.2,1.1-0.6,2.5-1.1,5.1C1,81.9,0.7,83.5,1,84.8
				c0.3,1.4,0.9,2.9,2.3,4.7c1.4,1.8,2.8,2.7,3.2,2.8l-0.6,1.6c0,0-0.7-1-1.6-2.2c-0.9-1.2-1.7-2.1-1.9-2.4c-0.3-0.3-0.9-0.3-1,0.6
				c-0.2,0.9-1.1,5.8-1.2,7.7c-0.2,1.9,0,3.6,0.3,4.3c0.3,0.7,0.9,2.1,2.3,3.8c1.3,1.7,2.2,2.4,3.4,3c0,0,0.6,1.1,1.7,1.9l0.5,1.6
				c0,0-4.6-0.8-5.1-0.8c-0.5,0-0.8,0.3-0.5,0.7c0.2,0.2,0.5,1,1.2,2.2c0.7,1.2,1.8,3.3,3.2,5.5c1.4,2.2,2.3,3.3,3.7,4.2
				c1.4,0.8,3.3,1.6,5.8,1.9c2.5,0.4,4.2,0.1,4.8-0.1c0.6-0.2,0.9-0.2,1-0.2c0.1,0,0.4-0.3,0.4-0.3s0.4-0.1,0.4-0.5
				c0-0.4,0-0.6,0-0.6s1.6,0.7,2.8,1.3l-4.1,3c0,0-0.6,0.7,0.2,1.1c0.8,0.4,3.7,1.3,5.8,1.7c2.1,0.5,4,1,7.3,0c0,0-0.5,0.8-0.8,1.3
				c-0.3,0.4-0.3,0.8-0.3,0.9c0,0.2,0.2,0.6,2.4,0.2c2.2-0.4,3.8-0.9,5.1-2c1.3-1.1,1.7-2.2,1.6-4c0,0,0.7,1.3,2.4,1.3
				c1.7,0,2.4-0.9,2.7-1.3c0,0-0.1,1.4,0.3,2.3c0.4,0.9,1.2,1.7,2.4,2.4c1.2,0.7,2.4,1,3.1,1.2c0.7,0.1,3.2,0.6,3.3-0.2
				c0-0.5-1.1-2.1-1.1-2.1s1.9,0.6,3.5,0.6c1.6,0,3.3-0.4,5.2-1c1.9-0.5,4.1-1.2,4.5-1.4c0.4-0.1,0.7-0.7,0.1-1.2
				c-0.6-0.5-2.7-2.1-4-2.9c0,0,1.9-0.8,2.8-1.3c0,0-0.2,0.9,1,1.3c1.2,0.4,2.6,0.6,5.3,0.2c2.7-0.3,5.4-1.4,6.9-2.5
				c1.5-1.1,3.5-4.7,4.2-5.9c0.8-1.3,2.7-4.8,2.9-5.3c0,0,0.6-0.5-0.1-0.8c-0.4-0.1-5.5,0.8-5.5,0.8s0.5-1.4,0.5-1.6
				C83.5,110.9,84.5,110.2,85.2,108.9L85.2,108.9z M85.5,74.9L85.5,74.9l-1.3,2.3L84,76.7C84.7,76,85.5,74.9,85.5,74.9L85.5,74.9z
				 M7.1,77.2L7.1,77.2l-1.3-2.3c0,0,0.9,1,1.6,1.8L7.1,77.2L7.1,77.2z M12,75.5L12,75.5l-0.8,1.3l-0.2-0.5L12,75.5L12,75.5z
				 M10.5,92.3L10.5,92.3c0,0-0.4,0.8-0.9,2c0,0-0.3-0.6-0.4-0.8C9.2,93.5,9.8,93.1,10.5,92.3L10.5,92.3z M9.4,110.4L9.4,110.4
				c0,0,0.5-0.5,0.9-1.1c0,0,0.7,0.8,1,0.8c0.3,0,0.7-0.4,0.7-0.4s0.3,1.3,0.5,2C12.6,111.7,11,111,9.4,110.4L9.4,110.4z M15.2,70.2
				L15.2,70.2l0,5.1c-0.5-2.2-0.6-2.6-1.2-2.6C15,71.2,15.2,70.2,15.2,70.2L15.2,70.2z M15.3,88.8L15.3,88.8v8.5
				c-1.1-3.8-1.9-5.9-1.9-5.9C14.7,89.9,15.3,88.8,15.3,88.8L15.3,88.8z M13.8,107.7L13.8,107.7c0,0,0.9-1.1,1.5-2.6
				c0,0,0.1,2.3,1.3,4.2C16.5,109.3,14.9,108.3,13.8,107.7L13.8,107.7z M23.2,123.6L23.2,123.6l-0.1-0.7c0,0,1.1,0.2,1.4-0.1
				c0.3-0.3,0.3-1.4,0.3-2.2c0,0,1.1,0.7,2.4,1.3C27.2,122,24.8,122.8,23.2,123.6L23.2,123.6z M24.4,117.7L24.4,117.7
				c0,0-0.3-1.4-1.2-3c0,0,2.2,0.9,5.6,1.6C28.8,116.3,26.2,117,24.4,117.7L24.4,117.7z M42.9,122.4L42.9,122.4
				c-0.3-0.3-0.9-0.7-0.9-0.7c0.4-0.3,0.6-0.6,0.6-0.6c0.2,0.2,0.7,0.5,0.7,0.5C43,122,42.9,122.4,42.9,122.4L42.9,122.4z
				 M48.4,122.4L48.4,122.4c-0.1-0.3-0.3-0.6-0.3-0.6c0.2-0.1,0.7-0.5,0.7-0.5c0.2,0.3,0.5,0.5,0.5,0.5
				C48.7,122.1,48.4,122.4,48.4,122.4L48.4,122.4z M68.1,114.7L68.1,114.7c-0.7,1.3-1.1,3-1.1,3c-2.4-0.9-4.4-1.4-4.4-1.4
				C66,115.6,68.1,114.7,68.1,114.7L68.1,114.7z M68.2,123.6L68.2,123.6c-2-0.9-4-1.6-4-1.6c1.1-0.5,2.4-1.3,2.4-1.3
				s0.1,1.9,0.4,2.2c0.3,0.2,1.3,0.1,1.3,0.1C68.2,123.1,68.2,123.6,68.2,123.6L68.2,123.6z M76.3,70.8L76.3,70.8
				c0.4,1.1,1,1.9,1,1.9c-0.7,0-0.7,0.8-1,1.8V70.8L76.3,70.8z M75.1,109.1L75.1,109.1c1-1.8,1.1-3.6,1.1-3.6
				c0.4,0.9,1.3,2.2,1.3,2.2C76.9,108,75.1,109.1,75.1,109.1L75.1,109.1z M76.3,96.7L76.3,96.7v-7.5c0.7,1.1,1.7,2.2,1.7,2.2
				C77.2,93.6,76.3,96.7,76.3,96.7L76.3,96.7z M80.4,76.3L80.4,76.3l-0.2,0.5l-0.8-1.5C80.1,76.2,80.4,76.3,80.4,76.3L80.4,76.3z
				 M78.8,111.7L78.8,111.7c0,0,0.3-0.9,0.6-2c0,0,0.3,0.4,0.7,0.4c0.3,0,1-0.8,1-0.8s0.5,0.7,0.9,1.1
				C81.9,110.4,79.7,111.3,78.8,111.7L78.8,111.7z M81.7,94.3L81.7,94.3c-0.2-0.6-1-2.1-1-2.1c0.7,0.8,1.4,1.3,1.4,1.3
				C82,93.7,81.7,94.3,81.7,94.3z"/>
			<path class="st8" d="M17.6,101.2c0,1.1,0,2.9,0,3.7c0,1.1,0.6,3.3,2.3,5c1.7,1.7,3.9,2.6,6.3,3.4c2.4,0.7,5.6,1.3,7.3,1.5
				c1.7,0.2,3.3,0.4,5.5,1.4c2.2,1.1,4.5,2.7,6.7,4.6c1.7-1.3,3.4-2.6,4.9-3.5c1.5-0.9,2.9-1.7,4.3-1.9c1.4-0.3,3.2-0.6,5.1-0.9
				c1.9-0.3,4.1-0.8,6.2-1.4c2-0.7,3.8-1.5,5.1-2.8c1.3-1.3,2.3-2.8,2.6-4.9c0-0.4,0-1.2,0-1.2V27.3H17.6v71.6V101.2z"/>
			<path class="st7" d="M41.4,99.2c-0.6-0.6-1.4-1.6-1.7-2.4c-0.3-0.8-1.6-4.6-2.5-7.3c-0.9-2.6-2.1-6.1-2.9-8.5
				c-0.8-2.4-1.9-5.6-2.2-6.6c-0.3-1-0.8-0.2-1,0.3C31,75.3,26.8,85.1,25.5,88c-1.2,2.9-3.1,7.3-4,8.8c-0.8,1.5-1.8,2.2-2.6,2.5
				c-0.8,0.4-1.2,0.2-1.3,0.4c0,0-0.1,0.3,0,0.5c0,0,0.1,0.2,0.6,0.2h8c0,0,1.1,0.1,1-0.5c0-0.8-0.9-0.4-1.6-0.9
				c-0.8-0.5-1.3-1.2-1.4-1.9c-0.1-1.1,0.6-2.2,1.1-3.2H33c0.4,1.2,0.9,2,0.7,3.3c-0.3,1.3-1.2,2.2-1.6,2.4
				c-0.4,0.2-0.4,0.7,0.1,0.7c0.5,0,8.2,0,8.8,0C41.6,100.3,42,99.8,41.4,99.2L41.4,99.2z M26.5,91.1L26.5,91.1l3.1-6.9l2.6,6.9
				H26.5z"/>
			<path class="st7" d="M71.1,99.3c-0.5-0.4-1.3-1.4-1.7-2.4c-0.4-0.9-1.6-4.8-2.4-7.2c-0.8-2.4-5-14.8-5.2-15.3
				c-0.2-0.5-0.5-0.6-0.9,0.4c-0.4,1-2.4,5.7-3.8,9c-1.4,3.3-3,7.1-4.1,9.4c-1.1,2.3-1.8,4.9-4.3,6.1V81.1c1.9,0,2.6,0.7,2.7,1.8
				c0.1,1.1,0.3,2.2,1.2,2.2c0.9,0,0.7-2.9,0.8-4.5c0-1.7,0-4.9,0-5.6c0-0.7-0.2-1.7-0.8-1.7c-0.6,0-1.1,0.8-1.1,1.4
				c-0.1,0.6,0.3,2.7-2.8,2.7v-6.6c0,0,3.1-0.4,4.9-0.4c1.9,0,4.1,0.8,5.2,1.2c1.1,0.5,2.7,1.6,3.1,1.4c0.3-0.2-0.7-2.7-1.2-4.3
				c-0.5-1.6-1.2-3.3-1.4-3.9c-0.2-0.6-0.6-0.8-1.5-0.1c-0.9,0.7-2.3,1.3-4.2,1.3c-1.9,0-6.2-0.1-7.7-0.1c-1.6,0-4.6,0.1-5.8,0.1
				c-1.2,0-3.8-0.1-5.7-0.9c-1.9-0.7-4.5-2.9-5.1-3.6c-0.6-0.7-1.2,0-0.6,1.6c0.6,1.6,1.9,3.8,4.4,5.7c2.5,1.9,5.3,2.1,9.2,1.7v29.8
				c0,1.4-0.5,2.4-2,3.2c-1.6,0.8-1.9,1.3-1.1,1.6c0.8,0.3,3.6,0.9,4.8,1.5c0.8,0.5,1.7,2,3,2.9c1.3,0.9,3,1.7,5.6,0.5
				c2.6-1.1,3.3-2.3,3.5-2.6c0.2-0.3,0.3-1-1.2-0.9c-1.9,0.2-3.5-0.7-3.9-1.4c-0.7-1.2-1.5-2.6-2.2-2.9v-2h7.7c0.7,0,0.8-1-0.2-1.1
				c-1.1-0.1-2.2-1.1-2.2-2.3c0-1.2,1.2-3.1,1.2-3.1h7.5c0,0,0.8,1.6,0.8,2.6c0,1.2-0.9,2.6-1.5,2.9c-0.6,0.3-0.7,0.9,0.1,0.9
				c0.8,0,8.2,0,8.7,0C71.3,100.3,71.6,99.7,71.1,99.3L71.1,99.3z M56.1,91.2L56.1,91.2l3.1-6.9l2.5,6.9H56.1z"/>
			<rect x="9.6" y="30.5" class="st9" width="71.8" height="25.9"/>
			<rect x="10.5" y="40.7" class="st10" width="69.9" height="5.2"/>
			<path class="st11" d="M9.1,59.7L7.9,75.5c0,0-1.6-2.3-1.9-6.3C5.7,65,9.1,59.7,9.1,59.7z"/>
			<path class="st11" d="M9.8,60.6L9.2,73.6c0,0,0.7-0.3,0.9,0.7c0,0,1.5-1.7,1.7-5.2C12,65.6,9.8,60.6,9.8,60.6z"/>
			<polygon class="st11" points="12.5,60.1 12,62.4 11.6,61.4 			"/>
			<path class="st11" d="M13.4,59.6l-0.9,4.5c0,0,0.7,1.8,0.6,3.7c-0.1,1.9-0.5,4.3-2.5,7.3c0,0,2.3-2,3.6-6.6
				C15,65.8,13.4,59.6,13.4,59.6z"/>
			<polygon class="st11" points="5.7,60.2 6.3,62.8 6.8,61.7 			"/>
			<path class="st11" d="M4.8,59.2c0,0-1.3,6.3-1.2,7.9c0.1,1.7,1.1,3.7,1.5,4.5c0,0-1.2-4.4,0.6-7.5L4.8,59.2z"/>
			<path class="st11" d="M4.6,75.2l0.8,5.5l1.1-2.3C6.5,78.5,5.1,76,4.6,75.2z"/>
			<path class="st11" d="M5.7,90.4c-2.3-5.2-1-7.8-1-7.8l-1-8c0,0-1,3.9-1.3,5.3c-0.3,1.4-0.6,3.4,0.8,6.5
				C4.6,89.5,5.7,90.4,5.7,90.4z"/>
			<path class="st11" d="M8.6,76.9L8,91.1c0,0-0.1-0.4-0.7-0.4c0,0-1.4-3.2-1.3-6.4C6.1,81.9,8.6,76.9,8.6,76.9z"/>
			<path class="st11" d="M9.3,75.7L9,92.1c0,0,1.4-1.1,2.4-3.9c0.9-2.8,0.1-6.7-0.6-8.6C10.1,77.6,9.3,75.7,9.3,75.7z"/>
			<polygon class="st11" points="11.7,78.1 12.5,80.1 13.1,75.9 			"/>
			<path class="st11" d="M14.1,75.3l-0.9,7c0.8,1.8,0.3,5.5-0.8,7.3c0,0,0.4,0.1,0.5,0.4c1.4-1.6,2.6-5,2.7-7
				C15.7,81.2,14.4,76.3,14.1,75.3z"/>
			<path class="st11" d="M2,92.6l1.9,7.6c0,0-0.6,2,1.1,6.4c0,0-2.2-2-3.4-6C0.9,98.2,2,92.6,2,92.6z"/>
			<polygon class="st11" points="2.7,91.7 4.4,98.1 5.3,95.3 			"/>
			<path class="st11" d="M7,94.1l0.7,15c0,0-1-1.1-1.9-3.7c-0.9-2.5-1.1-4.9-0.2-7.5C6.4,95.5,7,94.1,7,94.1z"/>
			<path class="st11" d="M8.1,93.8l0.4,15.7c0,0,1.3-1.1,2-3.6c0.7-2.4,0.5-5.1-0.6-7.9C9,95.3,8.1,93.8,8.1,93.8z"/>
			<polygon class="st11" points="10.3,95.6 11.4,98.3 11.6,92.8 			"/>
			<path class="st11" d="M12.2,91.6L12,101.8c0,0,0.4,1.4,0,2.9l0,2.1c0,0,0.2-0.1,0.7,0.2c0,0,0.9-1.7,1.6-4.1c0.7-2.6,0.5-4-0.5-7
				C12.8,93,12.2,91.6,12.2,91.6z"/>
			<path class="st11" d="M82.2,59.7l1.2,15.9c0,0,1.6-2.3,1.9-6.3C85.7,65,82.2,59.7,82.2,59.7z"/>
			<path class="st11" d="M81.5,60.6l0.6,13.1c0,0-0.7-0.2-0.9,0.8c0,0-1.4-1.7-1.6-5.2C79.3,65.6,81.5,60.6,81.5,60.6z"/>
			<polygon class="st11" points="78.9,60.2 79.3,62.4 79.8,61.5 			"/>
			<path class="st11" d="M77.9,59.6l0.8,4.5c0,0-0.7,1.8-0.6,3.7c0.1,1.9,0.5,4.3,2.5,7.3c0,0-2.3-2-3.6-6.6
				C76.3,65.9,77.9,59.6,77.9,59.6z"/>
			<polygon class="st11" points="85.6,60.2 85.1,62.7 84.6,61.6 			"/>
			<path class="st11" d="M86.5,59.2c0,0,1.4,6.3,1.2,8c-0.1,1.7-1.1,3.6-1.5,4.4c0,0,1.2-4.4-0.6-7.5L86.5,59.2z"/>
			<path class="st11" d="M86.7,75.3L86,80.7l-1.1-2.2C84.9,78.5,86.2,76,86.7,75.3z"/>
			<path class="st11" d="M85.6,90.5c2.3-5.2,1.1-7.8,1.1-7.8l1-8c0,0,1,3.9,1.3,5.3c0.3,1.4,0.6,3.4-0.8,6.5
				C86.8,89.5,85.6,90.5,85.6,90.5z"/>
			<path class="st11" d="M82.7,77l0.7,14.1c0,0,0.1-0.4,0.7-0.3c0,0,1.4-3.2,1.3-6.4C85.3,82,82.7,77,82.7,77z"/>
			<path class="st11" d="M82,75.6l0.3,16.5c0,0-1.4-1.1-2.4-3.9c-0.9-2.8-0.1-6.7,0.6-8.6C81.2,77.6,82,75.6,82,75.6z"/>
			<polygon class="st11" points="79.6,78.1 78.8,80 78.2,75.8 			"/>
			<path class="st11" d="M77.2,75.4l0.9,7c-0.8,1.8-0.4,5.4,0.8,7.2c0,0-0.4,0.1-0.5,0.4c-1.4-1.6-2.6-5-2.7-6.9
				C75.6,81.2,76.9,76.4,77.2,75.4z"/>
			<path class="st11" d="M89.3,92.7l-1.9,7.5c0,0,0.5,2.1-1.1,6.4c0,0,2.3-2.5,3.4-6C90.4,98.3,89.3,92.7,89.3,92.7z"/>
			<path class="st11" d="M88.6,91.7L87,98.1L86,95.3c0,0,0.7-1.1,1-1.5C87.4,93.3,88.6,91.7,88.6,91.7z"/>
			<path class="st11" d="M84.4,94.1l-0.7,15c0,0,1-1.1,1.9-3.6c0.9-2.5,1.1-4.9,0.2-7.5C84.9,95.5,84.4,94.1,84.4,94.1z"/>
			<path class="st11" d="M83.2,93.9l-0.4,15.6c0,0-1.2-1-2-3.5c-0.7-2.4-0.5-5.1,0.6-7.9C82.4,95.4,83.2,93.9,83.2,93.9z"/>
			<polygon class="st11" points="81.1,95.6 80,98.3 79.7,92.8 			"/>
			<path class="st11" d="M79.1,91.6l0.2,10.2c0,0-0.4,1.4,0,2.9l0,2.1c0,0-0.2-0.1-0.7,0.2c0,0-0.9-1.7-1.6-4.1
				c-0.7-2.6-0.5-4,0.5-7C78.5,93,79.1,91.6,79.1,91.6z"/>
			<path class="st11" d="M13.1,108.6c0,0,4.8,2.3,6.7,4c1.9,1.7,3.2,5.5,3.2,5.5s-0.8,0.1-0.8,0.6c0.1,0.5,0.2,0.6,1.3,1.2l0.1,1
				c0,0-0.9-1.1-1.3-1.5c0,0-0.1-1.6-3.5-4.1L13.1,108.6z"/>
			<path class="st11" d="M13.3,109.8l3,3.8c0,0-1-0.7-2.3-1.3L13.3,109.8z"/>
			<path class="st11" d="M9.5,111.6c0,0,4.4,1.6,7,3.4c2.6,1.8,5.3,4.3,5.6,8.7c0,0-3.4-3.3-5.5-5.3C14.4,116.4,9.5,111.6,9.5,111.6
				z"/>
			<path class="st11" d="M9.9,113.1L21,124.5c0,0-0.8,0.1-3.3-1.2c-2.5-1.4-4.3-3.1-4.9-3.9C12.3,118.6,10.9,115.6,9.9,113.1z"/>
			<polygon class="st11" points="8.8,113.8 9.5,115.9 5.7,113.3 			"/>
			<path class="st11" d="M4.7,113.5l5.4,3.7c1.1,3.5,2.4,4.4,4.2,5.6c1.8,1.2,4.7,2.4,4.7,2.4s-2.1-0.2-4.7-1.3
				c-2.5-1-3.8-1.9-4.4-2.6C9.1,120.7,6.6,117,4.7,113.5z"/>
			<path class="st11" d="M25.3,119.7l7.9,0.9c0,0-2,0.1-4.4,0.9C28.8,121.5,25.9,120.1,25.3,119.7z"/>
			<path class="st11" d="M24.9,124.1c0,0,3.9-1.8,6.7-2.4c2.9-0.6,7.1-1.1,10.8,2c0,0-10.3,0.2-12.7,0.2
				C27.4,124.1,24.9,124.1,24.9,124.1z"/>
			<path class="st11" d="M26.3,124.7l16.1,0.2c0,0-1.2,1.1-4.3,1.8c-3.2,0.7-4.7,0.6-5.9,0.3C30.9,126.6,26.9,125.1,26.3,124.7z"/>
			<path class="st11" d="M27.2,126.5c0,0,1.3,0.6,2.5,1l-5.2,0.9C24.6,128.4,26.8,126.8,27.2,126.5z"/>
			<path class="st11" d="M23.6,129.2c0,0,4.4-0.5,8.1-1.2c3.4,0.5,8.6-0.5,11.1-1.8v0.9c0,0-1.1,1.1-3.8,2.4
				c-2.7,1.3-4.4,1.7-6.1,1.7C31.1,131.1,26.2,130,23.6,129.2z"/>
			<path class="st11" d="M24.6,118.9c0,0,4.3-1.4,6.4-1.7c2-0.3,5.9,0,9.7,3L24.6,118.9z"/>
			<path class="st11" d="M37.2,131.1c0,0-1.2,1.4-1.5,2c0,0,2,0,3.3-0.8c1.3-0.7,2.2-1.7,2.6-3C41.6,129.3,39.2,130.6,37.2,131.1z"
				/>
			<path class="st11" d="M50.6,120.3c0,0,2.1-1.8,4.9-2.6c2.8-0.8,4.2-1.1,11.2,1.2L50.6,120.3z"/>
			<path class="st11" d="M58.2,120.6l7.7-0.9l-3.4,1.9C62.5,121.6,60.7,120.9,58.2,120.6z"/>
			<path class="st11" d="M48.9,123.8c0,0,2.3-2,5-2.4c2.7-0.4,6.4,0,12.4,2.7L48.9,123.8z"/>
			<path class="st11" d="M49,125l16-0.2c0,0-3.1,1.4-5.4,2.1c-2.3,0.7-4.7,0.3-7.2-0.4C49.9,125.8,49,125,49,125z"/>
			<path class="st11" d="M48.6,126.2l0.5,0.1c0,0,4,2.4,10.6,1.7l8.1,1.2c0,0-7.1,1.9-9.6,2c-2.5,0.1-7.2-2-9.6-4.1V126.2z"/>
			<path class="st11" d="M49.8,129.3c0,0,1.8,1.1,4.4,1.9c0,0,0.9,0.9,1.4,1.9c0,0-2,0-3.7-1.1C50.1,131,49.8,129.3,49.8,129.3z"/>
			<path class="st11" d="M61.6,127.5c0,0,1.3-0.5,2.5-1l2.8,1.9C66.9,128.4,61.9,127.6,61.6,127.5z"/>
			<path class="st11" d="M68.2,118.1c0,0,1.3-3.5,2.7-5c1.4-1.4,3.5-2.5,7.3-4.6l-5.9,7c0,0-2.9,2-3.4,4l-1.4,1.5l0.1-1
				c0,0,1.1-0.6,1.2-0.9C69.1,118.8,69.1,118.3,68.2,118.1z"/>
			<path class="st11" d="M69.3,123.8c0,0,0.1-2.7,1.5-4.8c1.4-2.1,3.5-3.8,5.7-5c2.2-1.2,5.3-2.4,5.3-2.4L69.3,123.8z"/>
			<path class="st11" d="M70.2,124.5l11.2-11.5c0,0-0.8,2.3-1.9,4.6c-1,2.1-2.3,3.3-4.2,4.7C73.4,123.5,71.1,124.5,70.2,124.5z"/>
			<polygon class="st11" points="75,113.6 78,109.8 77.4,112.3 			"/>
			<polygon class="st11" points="82.5,113.8 81.8,115.9 85.7,113.2 			"/>
			<path class="st11" d="M81.3,117.2l5.3-3.7c0,0-1.5,2.7-3,4.9c-1.5,2.2-2.3,3.5-5.3,5c-3,1.4-6.1,1.8-6.1,1.8s1.8-0.4,4.6-2.2
				C79.5,121.2,80,120.6,81.3,117.2z"/>
		</g>
		<path class="st11" d="M47.5,124c0-1.3-0.8-2.3-1.8-2.3c-1,0-1.8,1-1.8,2.3v2.2c0,1.3,0.8,2.3,1.8,2.3c1,0,1.8-1,1.8-2.3V124z"/>
	</g>
</g>
<g>
</g>
<g>
</g>
</svg>
